<?xml version="1.0" encoding="UTF-8" standalone="no"?>
<!DOCTYPE svg PUBLIC "-//W3C//DTD SVG 1.1//EN" "http://www.w3.org/Graphics/SVG/1.1/DTD/svg11.dtd">
<svg width="100%" height="100%" viewBox="0 0 465 388" version="1.1" xmlns="http://www.w3.org/2000/svg" xmlns:xlink="http://www.w3.org/1999/xlink" xml:space="preserve" xmlns:serif="http://www.serif.com/" style="fill-rule:evenodd;clip-rule:evenodd;stroke-linejoin:round;stroke-miterlimit:2;">
    <g transform="matrix(1,0,0,1,1.061553,1.061553)">
        <g transform="matrix(1,0,0,1,1,1)">
            <path d="M420,300L420,266.37" style="fill:none;fill-rule:nonzero;stroke:black;stroke-width:1px;"/>
        </g>
    </g>
    <g transform="matrix(1,0,0,1,1.061553,1.061553)">
        <g transform="matrix(1,0,0,1,1,1)">
            <path d="M420,261.12L423.5,268.12L420,266.37L416.5,268.12L420,261.12Z" style="fill:none;fill-rule:nonzero;stroke:black;stroke-width:1px;stroke-linejoin:miter;stroke-miterlimit:10;"/>
        </g>
    </g>
    <g transform="matrix(1,0,0,1,1.061553,1.061553)">
        <g transform="matrix(1,0,0,1,385.5415,219.297852)">
            <g transform="matrix(12,0,0,12,69.791016,0)">
            </g>
            <text x="0px" y="0px" style="font-family:'ArialMT', 'Arial', sans-serif;font-size:12px;">HTTP<tspan x="31.113px 34.447px " y="0px 0px "> S</tspan>erver</text>
        </g>
    </g>
    <g transform="matrix(1,0,0,1,1.061553,1.061553)">
        <g transform="matrix(1,0,0,1,398.7635,231.297852)">
            <text x="0px" y="0px" style="font-family:'ArialMT', 'Arial', sans-serif;font-size:12px;">Process</text>
        </g>
    </g>
    <g transform="matrix(1,0,0,1,1.061553,1.061553)">
        <g transform="matrix(1,0,0,1,1,1)">
            <path d="M390,315C390,306.72 403.43,300 420,300C427.96,300 435.59,301.58 441.21,304.39C446.84,307.21 450,311.02 450,315L450,365C450,373.28 436.57,380 420,380C403.43,380 390,373.28 390,365L390,315Z" style="fill:none;fill-rule:nonzero;stroke:black;stroke-width:1px;stroke-linejoin:miter;stroke-miterlimit:10;"/>
        </g>
    </g>
    <g transform="matrix(1,0,0,1,1.061553,1.061553)">
        <g transform="matrix(1,0,0,1,1,1)">
            <path d="M450,315C450,323.28 436.57,330 420,330C403.43,330 390,323.28 390,315" style="fill:none;fill-rule:nonzero;stroke:black;stroke-width:1px;"/>
        </g>
    </g>
    <g transform="matrix(1,0,0,1,1.061553,1.061553)">
        <g transform="matrix(1,0,0,1,411.449281,351.474609)">
            <text x="0px" y="0px" style="font-family:'ArialMT', 'Arial', sans-serif;font-size:12px;">File</text>
        </g>
    </g>
    <g transform="matrix(1,0,0,1,1.061553,1.061553)">
        <g transform="matrix(1,0,0,1,401.113281,363.474609)">
            <text x="0px" y="0px" style="font-family:'ArialMT', 'Arial', sans-serif;font-size:12px;">System</text>
        </g>
    </g>
    <g transform="matrix(1,0,0,1,1.061553,1.061553)">
        <g transform="matrix(1,0,0,1,379.304109,161.5)">
            <text x="3.334px" y="0px" style="font-family:'ArialMT', 'Arial', sans-serif;font-size:12px;">[ We<tspan x="28.002px " y="0px ">b</tspan> Server ]</text>
        </g>
    </g>
    <g transform="matrix(1,0,0,1,1.061553,1.061553)">
        <g transform="matrix(1,0,0,1,1,1)">
            <path d="M346.37,220L373.63,220" style="fill:none;fill-rule:nonzero;stroke:black;stroke-width:1px;"/>
        </g>
    </g>
    <g transform="matrix(1,0,0,1,1.061553,1.061553)">
        <g transform="matrix(1,0,0,1,1,1)">
            <path d="M341.12,220L348.12,216.5L346.37,220L348.12,223.5L341.12,220Z" style="fill:none;fill-rule:nonzero;stroke:black;stroke-width:1px;stroke-linejoin:miter;stroke-miterlimit:10;"/>
        </g>
    </g>
    <g transform="matrix(1,0,0,1,1.061553,1.061553)">
        <g transform="matrix(1,0,0,1,1,1)">
            <path d="M378.88,220L371.88,223.5L373.63,220L371.88,216.5L378.88,220Z" style="fill:none;fill-rule:nonzero;stroke:black;stroke-width:1px;stroke-linejoin:miter;stroke-miterlimit:10;"/>
        </g>
    </g>
    <g transform="matrix(1,0,0,1,1.061553,1.061553)">
        <g transform="matrix(1,0,0,1,1,1)">
            <circle cx="420" cy="220" r="40" style="fill:none;stroke:black;stroke-width:1px;stroke-linejoin:miter;stroke-miterlimit:4;"/>
        </g>
    </g>
    <g transform="matrix(1,0,0,1,1.061553,1.061553)">
        <g transform="matrix(1,0,0,1,0.5,0.5)">
            <g transform="matrix(1,0,0,1,0.5,0.5)">
                <rect x="280" y="205" width="60" height="30" style="fill:none;"/>
            </g>
            <g>
                <g>
                    <g>
                        <g transform="matrix(1,0,0,1,310,224)">
                            <g transform="matrix(1,0,0,1,-5.001,0)">
                                <text x="0px" y="0px" style="font-family:'Arial-BoldMT', 'Arial', sans-serif;font-weight:700;font-size:12px;">...</text>
                            </g>
                        </g>
                    </g>
                </g>
            </g>
        </g>
    </g>
    <g transform="matrix(1,0,0,1,1.061553,1.061553)">
        <g transform="matrix(1,0,0,1,0.5,0.5)">
            <g transform="matrix(1,0,0,1,0.5,0.5)">
                <rect x="10" y="0" width="120" height="60" style="fill:none;stroke:black;stroke-width:1px;stroke-linejoin:miter;stroke-miterlimit:4;"/>
            </g>
        </g>
    </g>
    <g transform="matrix(1,0,0,1,1.061553,1.061553)">
        <g transform="matrix(1,0,0,1,0.5,0.5)">
            <g transform="matrix(1,0,0,1,0.5,0.5)">
                <rect x="15" y="5" width="110" height="50" style="fill:none;stroke:black;stroke-width:1px;stroke-linejoin:miter;stroke-miterlimit:4;"/>
            </g>
        </g>
    </g>
    <g transform="matrix(1,0,0,1,1.061553,1.061553)">
        <g transform="matrix(1,0,0,1,0.5,0.5)">
            <g transform="matrix(1,0,0,1,0.5,0.5)">
                <path d="M140,75L210,75.06L210,220L273.63,220" style="fill:none;fill-rule:nonzero;stroke:black;stroke-width:1px;"/>
                <path d="M278.88,220L271.88,223.5L273.63,220L271.88,216.5L278.88,220Z" style="fill:none;fill-rule:nonzero;stroke:black;stroke-width:1px;stroke-linejoin:miter;stroke-miterlimit:10;"/>
            </g>
        </g>
    </g>
    <g transform="matrix(1,0,0,1,1.061553,1.061553)">
        <g transform="matrix(1,0,0,1,0.5,0.5)">
            <g transform="matrix(1,0,0,1,0.5,0.5)">
                <rect x="0" y="60" width="140" height="30" style="fill:none;stroke:black;stroke-width:1px;stroke-linejoin:miter;stroke-miterlimit:4;"/>
            </g>
        </g>
    </g>
    <g transform="matrix(1,0,0,1,1.061553,1.061553)">
        <g transform="matrix(1,0,0,1,0.5,0.5)">
            <g transform="matrix(1,0,0,1,0.5,0.5)">
                <rect x="10" y="145" width="120" height="60" style="fill:none;stroke:black;stroke-width:1px;stroke-linejoin:miter;stroke-miterlimit:4;"/>
            </g>
        </g>
    </g>
    <g transform="matrix(1,0,0,1,1.061553,1.061553)">
        <g transform="matrix(1,0,0,1,0.5,0.5)">
            <g transform="matrix(1,0,0,1,0.5,0.5)">
                <rect x="15" y="150" width="110" height="50" style="fill:none;stroke:black;stroke-width:1px;stroke-linejoin:miter;stroke-miterlimit:4;"/>
            </g>
        </g>
    </g>
    <g transform="matrix(1,0,0,1,1.061553,1.061553)">
        <g transform="matrix(1,0,0,1,0.5,0.5)">
            <g transform="matrix(1,0,0,1,0.5,0.5)">
                <path d="M140,220L273.63,220" style="fill:none;fill-rule:nonzero;stroke:black;stroke-width:1px;"/>
                <path d="M278.88,220L271.88,223.5L273.63,220L271.88,216.5L278.88,220Z" style="fill:none;fill-rule:nonzero;stroke:black;stroke-width:1px;stroke-linejoin:miter;stroke-miterlimit:10;"/>
            </g>
        </g>
    </g>
    <g transform="matrix(1,0,0,1,1.061553,1.061553)">
        <g transform="matrix(1,0,0,1,0.5,0.5)">
            <g transform="matrix(1,0,0,1,0.5,0.5)">
                <rect x="0" y="205" width="140" height="30" style="fill:none;stroke:black;stroke-width:1px;stroke-linejoin:miter;stroke-miterlimit:4;"/>
            </g>
        </g>
    </g>
    <g transform="matrix(1,0,0,1,1.061553,1.061553)">
        <g transform="matrix(1,0,0,1,0.5,0.5)">
            <g transform="matrix(1,0,0,1,0.5,0.5)">
                <rect x="10" y="290" width="120" height="60" style="fill:none;stroke:black;stroke-width:1px;stroke-linejoin:miter;stroke-miterlimit:4;"/>
            </g>
        </g>
    </g>
    <g transform="matrix(1,0,0,1,1.061553,1.061553)">
        <g transform="matrix(1,0,0,1,0.5,0.5)">
            <g transform="matrix(1,0,0,1,0.5,0.5)">
                <rect x="15" y="295" width="110" height="50" style="fill:none;stroke:black;stroke-width:1px;stroke-linejoin:miter;stroke-miterlimit:4;"/>
            </g>
        </g>
    </g>
    <g transform="matrix(1,0,0,1,1.061553,1.061553)">
        <g transform="matrix(1,0,0,1,0.5,0.5)">
            <g transform="matrix(1,0,0,1,0.5,0.5)">
                <path d="M140,365.06L210,365.06L210,220L273.63,220" style="fill:none;fill-rule:nonzero;stroke:black;stroke-width:1px;"/>
                <path d="M278.88,220L271.88,223.5C271.88,223.5 273.63,221.167 273.63,220C273.63,218.833 271.88,216.5 271.88,216.5L278.88,220Z" style="fill:none;fill-rule:nonzero;stroke:black;stroke-width:1px;stroke-linejoin:miter;stroke-miterlimit:10;"/>
            </g>
        </g>
    </g>
    <g transform="matrix(1,0,0,1,1.061553,1.061553)">
        <g transform="matrix(1,0,0,1,288.495,199.5)">
            <text x="0px" y="0px" style="font-family:'ArialMT', 'Arial', sans-serif;font-size:12px;">Network</text>
        </g>
    </g>
    <g transform="matrix(1,0,0,1,1.061553,1.061553)">
        <g transform="matrix(1,0,0,1,1,1)">
            <rect x="0" y="350" width="140" height="30" style="fill:none;stroke:black;stroke-width:1px;stroke-linejoin:miter;stroke-miterlimit:4;"/>
        </g>
    </g>
    <g transform="matrix(1,0,0,1,1.061553,1.061553)">
        <g transform="matrix(1,0,0,1,-22.061553,164.938447)">
            <g transform="matrix(12,0,0,12,117.338582,15.012598)">
            </g>
            <text x="76.651px" y="15.013px" style="font-family:'ArialMT', 'Arial', sans-serif;font-size:12px;">Client 2</text>
        </g>
    </g>
    <g transform="matrix(1,0,0,1,1.061553,1.061553)">
        <g transform="matrix(1,0,0,1,-22.061553,309.938447)">
            <g transform="matrix(12,0,0,12,117.338582,15.012598)">
            </g>
            <text x="76.651px" y="15.013px" style="font-family:'ArialMT', 'Arial', sans-serif;font-size:12px;">Client 3</text>
        </g>
    </g>
    <g transform="matrix(1,0,0,1,1.061553,1.061553)">
        <g transform="matrix(1,0,0,1,-26.061553,19.938447)">
            <g transform="matrix(12,0,0,12,117.338582,15.012598)">
            </g>
            <text x="76.651px" y="15.013px" style="font-family:'ArialMT', 'Arial', sans-serif;font-size:12px;">Client 1</text>
        </g>
    </g>
</svg>
